<svg role="img" viewBox="0 0 24 24" xmlns="http://www.w3.org/2000/svg"><title>RustFS</title><path d="M2 4a2 2 0 0 1 2-2h16a2 2 0 0 1 2 2v4a2 2 0 0 1-2 2H4a2 2 0 0 1-2-2V4zm2-.5a.5.5 0 0 0-.5.5v4a.5.5 0 0 0 .5.5h16a.5.5 0 0 0 .5-.5V4a.5.5 0 0 0-.5-.5H4zM2 14a2 2 0 0 1 2-2h16a2 2 0 0 1 2 2v4a2 2 0 0 1-2 2H4a2 2 0 0 1-2-2v-4zm2-.5a.5.5 0 0 0-.5.5v4a.5.5 0 0 0 .5.5h16a.5.5 0 0 0 .5-.5v-4a.5.5 0 0 0-.5-.5H4zM6 5.5a1 1 0 1 1 0 2 1 1 0 0 1 0-2zm0 10a1 1 0 1 1 0 2 1 1 0 0 1 0-2zm3-10a1 1 0 1 1 0 2 1 1 0 0 1 0-2zm0 10a1 1 0 1 1 0 2 1 1 0 0 1 0-2z"/></svg>
