<svg xmlns="http://www.w3.org/2000/svg" viewBox="0 0 2457.6 2457.6">
  <g transform="translate(204.8, 204.8)">



<path d="M 1853.39 148.233 L 1854.3 148.345 L 1854.95 149.93 C 1844.57 199.213 1836.13 248.009 1824.69 297.147 C 1777.6 499.389 1697.51 685.779 1552.97 838.317 C 1532.36 860.065 1511.98 879.02 1490 899.506 C 1442.71 1041.08 1396.5 1183.02 1351.38 1325.3 L 1313.54 1443.95 C 1308.76 1458.88 1304.16 1475.64 1299.01 1490.23 C 1299.76 1365.36 1299.04 1240.48 1296.82 1115.63 C 1281.88 1099.55 1265.93 1079.02 1252.61 1061.8 C 1217.27 1077.24 1171.68 1112.29 1144.88 1139.78 C 1133.62 1118.41 1132.66 1110.28 1116.29 1088.26 C 1103.19 1120.23 1075.22 1153.74 1046.87 1173.07 C 1027.08 1186.58 1017.78 1190.18 1001.38 1208.73 C 979.678 1233.28 958.344 1258.27 936.668 1282.84 L 784.64 1455.65 L 730.609 1517.67 C 721.052 1528.7 708.188 1544.54 697.942 1554.47 C 701.043 1563.91 711.129 1584.37 715.684 1594.2 L 757.911 1683.98 C 745.9 1698.06 726.646 1716.85 713.474 1730.65 C 700.201 1744.55 678.959 1767.68 664.984 1779.72 L 664.285 1779.59 C 670.628 1770.22 679.166 1761.56 686.075 1752.65 C 703.617 1730.02 724.202 1707.93 741.569 1685.51 C 721.855 1645.59 695.327 1593.53 679.047 1553.45 C 687.865 1541.31 700.973 1526.71 710.846 1515.09 C 730.365 1491.9 750.123 1468.91 770.118 1446.12 C 806.374 1404.07 842.894 1362.24 879.673 1320.64 C 911.551 1285.08 942.953 1249.1 973.873 1212.71 C 928.164 1227.98 858.689 1243.74 810.235 1247.32 C 808.8 1213.64 810.978 1186.15 814.805 1152.97 C 817.228 1136.22 819.609 1122.58 823.234 1106.09 C 813.897 1115.63 803.246 1128.34 794.091 1138.53 L 733.94 1205.7 L 548.798 1414.51 C 539.014 1412.55 522.633 1411.21 512.108 1409.94 C 488.724 1407 465.318 1404.23 441.894 1401.63 C 428.478 1414.3 415.959 1428.23 403.049 1441.52 C 374.471 1471.03 345.705 1500.37 316.752 1529.52 C 311.82 1534.42 287.708 1558.92 283.34 1561.65 C 284.992 1557.78 306.428 1533.42 310.533 1528.64 C 351.75 1480.63 393.489 1432.79 435.29 1385.28 C 469.54 1387.41 507.381 1393.08 542.511 1396.03 C 560.243 1378.8 585.838 1347.42 602.596 1328.12 L 696.029 1222.14 L 780.749 1128.02 C 797.091 1110.01 813.973 1091.73 829.455 1072.96 C 833.941 1067.52 836.269 1058.75 838.749 1051.79 C 859.724 992.891 896.799 949.787 953.582 923.022 C 943.948 913.407 913.84 905.838 898.926 899.009 C 909.451 886.691 937.869 860.476 950.452 849.485 C 957.913 825.257 965.617 808.38 976.644 785.793 C 961.721 772.817 942.565 756.341 926.549 744.895 C 863.968 749.03 775.456 767.745 712.777 780.199 C 685.831 785.751 658.854 791.148 631.846 796.389 C 598.419 802.65 564.77 808.184 531.449 814.924 C 542.446 810.566 553.498 804.588 564.286 799.49 L 617.606 774.749 C 695.374 738.585 772.94 701.989 850.302 664.963 L 1075.28 558.442 C 1094.75 549.082 1114.28 539.847 1133.86 530.737 C 1139.17 528.252 1163.28 517.395 1166.68 514.979 C 1183.84 502.772 1201.78 483.433 1218.16 469.135 C 1247.33 443.561 1277.73 419.417 1309.24 396.788 C 1427.72 309.912 1569.18 242.922 1706.87 193.05 C 1752.72 176.446 1805.72 158.431 1853.39 148.233 z" fill="#2563eb" transform="translate(0,0)"></path>

<path d="M 1518.84 375.967 C 1590.06 369.701 1652.94 422.211 1659.46 493.408 C 1665.99 564.605 1613.71 627.675 1542.54 634.465 C 1471 641.292 1407.53 588.681 1400.96 517.112 C 1394.4 445.543 1447.25 382.266 1518.84 375.967 z" fill="#2563eb" transform="translate(0,0)"></path>











<path d="M 972.269 852.255 C 972.906 852.485 975.153 853.35 975.723 853.445 C 971.611 859.916 949.157 884.245 942.624 885.495 C 949.118 878.216 970.215 859.574 972.269 852.255 z" fill="#2563eb" transform="translate(0,0)"></path>
<path d="M 1802.15 881.555 C 1804.55 883.951 1813.83 899.631 1816.46 903.835 L 1846.51 951.242 C 1888.56 1016.18 1930.22 1081.37 1971.49 1146.81 C 1937.9 1146.21 1904.84 1146.8 1871.26 1147.05 C 1856.22 1290.2 1792.71 1438.18 1703.92 1550.81 C 1570.39 1722.35 1373.54 1833.05 1157.6 1858.02 C 1093.13 1865.86 1027.94 1865.78 963.485 1857.8 C 956.188 1856.95 940.455 1856.65 935.244 1852.18 C 927.058 1844.72 931.654 1827.55 944.172 1829.15 C 956.219 1830.69 967.985 1832.34 980.158 1833.49 C 1009.38 1836.52 1038.75 1837.85 1068.13 1837.5 C 1411.25 1834.57 1713.16 1610.22 1814.94 1282.52 C 1822.11 1259.94 1830.83 1227.33 1835.45 1203.76 C 1838.19 1189.51 1840.52 1175.19 1842.44 1160.81 C 1848.17 1114.57 1844.2 1119.2 1893.25 1119.56 C 1903.28 1119.53 1913.31 1119.7 1923.34 1120.05 C 1909.9 1101.1 1894.74 1075.67 1882.04 1055.7 C 1855.63 1014.02 1828.9 972.551 1801.86 931.281 C 1761.04 993.675 1720.61 1056.32 1680.57 1119.22 C 1700.47 1119.68 1722.4 1118.6 1742.07 1120.38 C 1748.43 1120.96 1750.83 1124.45 1754.15 1129.3 C 1754.04 1140.64 1750.2 1166.09 1748.35 1177.52 C 1720.08 1351.76 1616.16 1512.34 1474.96 1616.03 C 1369.2 1693.98 1243.18 1739.74 1112.05 1747.82 C 1088.44 1749.14 1054.73 1749.98 1031.32 1746.39 C 1021.73 1736.79 1019.51 1725.42 1035.1 1722.42 C 1047.43 1720.05 1064.53 1723.13 1077.45 1722.68 C 1105.57 1721.7 1133.37 1720.59 1161.24 1716.65 C 1281.85 1699.75 1395.41 1649.75 1489.32 1572.21 C 1592.95 1485.43 1668.54 1369.88 1706.55 1240.17 C 1715.46 1209.42 1722.6 1178.34 1725.7 1146.44 C 1695.54 1145.65 1662.68 1146.46 1632.14 1146.35 L 1802.15 881.555 z" fill="#2563eb" transform="translate(0,0)"></path>
<path d="M 849.935 196.58 C 853.616 196.269 857.763 196.15 861.493 195.955 C 855.173 211.734 848.489 226.795 841.618 242.317 C 806.398 321.882 774.014 403.1 738.445 482.453 C 720.958 462.505 698.921 434.534 682.968 413.149 C 648.82 434.169 608.055 466.225 578.858 493.716 C 481.693 585.271 412.976 702.889 380.932 832.49 C 367.59 888.651 362.705 937.263 360.951 994.607 C 355.212 1001.84 343.526 1013.63 336.839 1020.72 C 331.969 917.14 347.467 823.815 386.195 728.145 C 433.315 611.743 513.304 506.649 612.637 430.09 C 632.711 414.618 665.518 389.13 688.385 379.18 C 700.572 394.742 718.181 415.589 731.339 430.317 C 735.202 423.215 740.485 410.158 743.899 402.445 C 753.189 381.791 762.109 360.972 770.654 339.999 C 786.696 301.601 804.146 263.469 819.57 224.754 L 577.148 246.241 C 586.794 258.074 595.591 270.565 604.821 282.677 C 614.304 295.119 618.319 300.092 620.731 315.694 C 614.081 321.342 600.689 330.019 593.132 335.307 C 579.945 344.59 567.084 354.326 554.571 364.497 C 476.876 426.668 410.836 502.139 359.526 587.397 C 260.565 757.045 221.408 957.296 268.196 1150.14 C 280.454 1138.22 297.17 1118.31 309.447 1105.15 L 406.04 1001.57 C 434.888 1007.08 464.916 1014.36 493.65 1020.88 L 590.56 1042.37 C 624.758 985.117 694.161 1031.63 667.991 1076.99 C 649.473 1109.08 597.87 1105.42 588.541 1058.66 C 552.71 1053.29 512.048 1042.36 476.453 1034.36 C 455.227 1029.58 432.859 1025.74 412.176 1020.89 C 389.557 1040.29 358.119 1076.87 337.126 1099.35 C 316.476 1121.46 291.778 1147.3 272.457 1170.02 C 263.115 1169.57 253.769 1169.19 244.421 1168.88 C 217.18 1067.66 216.406 928.218 237.726 826.02 C 274.786 650.642 367.587 491.96 502.269 373.674 C 529.417 349.569 558.45 325.966 588.843 306.078 C 572.635 280.642 544.118 248.705 530.89 223.787 C 564.248 219.04 611.033 216.657 645.499 213.635 C 713.602 207.46 781.749 201.775 849.935 196.58 z" fill="#2563eb" transform="translate(0,0)"></path>

<path d="M 859.804 968.068 L 860.459 968.535 C 851.533 980.598 839.365 994.673 829.679 1006.4 C 802.523 1039.17 774.827 1071.48 746.602 1103.33 C 680.816 1179.2 614.395 1254.51 547.346 1329.26 C 521.598 1326.71 495.876 1323.9 470.185 1320.83 C 455.539 1319.11 436.015 1317.34 422.02 1314.51 C 391.819 1346.16 361.726 1382.73 331.423 1412.99 C 348.905 1450.98 317.916 1488.61 277.323 1474.09 C 257.422 1466.97 247.57 1435.59 257.68 1416.94 C 271.438 1391.55 294.568 1389.51 318.229 1402.44 C 343.307 1376.1 367.244 1348.42 391.698 1321.5 C 399.432 1312.98 406.821 1304.6 415.127 1296.6 C 434.437 1297.95 458.083 1301.67 477.296 1304.07 C 498.519 1306.72 521.07 1309.1 542.104 1312.34 C 548.389 1302.83 555.642 1294.44 562.905 1285.67 C 538.91 1280.29 515.042 1274.36 491.322 1267.88 C 457.788 1259.32 421.28 1247.66 388.127 1240.2 C 381.373 1246.36 375.223 1252.98 368.824 1259.48 C 306.985 1322.29 247.583 1388.16 183.838 1449.02 C 190.495 1438.25 209.249 1416.96 218.12 1406.62 C 240.647 1380.27 263.495 1354.2 286.659 1328.41 L 348.089 1258.65 C 359.064 1246.38 371.564 1231.91 383.361 1220.63 C 404.611 1226.97 428.51 1232.82 450.155 1238.6 C 491.532 1249.85 533.015 1260.71 574.597 1271.18 C 606.462 1238.91 638.105 1200.92 669.166 1167.38 C 731.777 1100.06 795.329 1033.61 859.804 968.068 z" fill="#2563eb" transform="translate(0,0)"></path>

<path d="M 1030.83 1348.73 C 1058.74 1372.43 1095.52 1410.34 1122.72 1436.62 C 1124.79 1435.55 1126.87 1434.52 1128.98 1433.53 C 1181.34 1409.02 1216.34 1486.09 1162.88 1507.25 C 1128.57 1520.82 1093.56 1484.8 1110.97 1450.77 C 1086.58 1424.99 1058.02 1398.74 1032.53 1373.14 C 973.415 1439.34 914.632 1505.85 856.187 1572.65 C 877.364 1621.49 905.507 1671.48 925.315 1718.6 C 911.677 1731.93 898.268 1747.29 885.401 1761.5 C 878.347 1769.75 867.638 1780.44 860.013 1788.57 C 840.916 1809.02 821.665 1829.33 802.263 1849.49 L 760.768 1892.69 C 754.14 1899.52 744.345 1910.19 737.36 1916.24 C 745.2 1905.28 755.146 1895.64 763.572 1885.16 C 809.662 1827.85 858.818 1773.46 906.615 1717.68 C 888.659 1680.31 870.871 1642.93 852.358 1605.82 C 846.71 1594.5 840.787 1582.56 835.909 1570.9 L 955.159 1434.8 C 979.989 1406.33 1005.2 1376.31 1030.83 1348.73 z" fill="#2563eb" transform="translate(0,0)"></path>

<path d="M 1147.51 1169.55 C 1151.22 1169.24 1153.8 1168.65 1157.28 1169.92 C 1160.35 1174.04 1159.22 1179.68 1159.03 1185.33 C 1141.01 1186.96 1118.6 1187.24 1100.58 1187.23 C 1064.78 1229.06 1028.64 1270.58 992.139 1311.8 L 775.814 1559.13 C 799.111 1605.59 821.761 1652.38 843.759 1699.48 C 828.069 1717 809.553 1735.6 793.218 1753.09 C 770.953 1777.39 748.566 1801.57 726.058 1825.65 C 707.758 1845.01 688.552 1864.12 669.992 1883.34 C 668.081 1885.36 668.874 1885.05 666.541 1885.99 C 672.42 1878.03 679.23 1869.85 685.743 1862.39 C 732.953 1808.28 777.737 1751.55 825.311 1697.83 C 820.02 1689.27 807.357 1660.92 802.434 1650.64 C 786.921 1618.58 771.672 1586.4 756.689 1554.1 C 768.482 1542.62 784.528 1522.79 795.803 1509.96 C 824.537 1477.42 853.045 1444.68 881.324 1411.74 L 1092.56 1171.15 C 1110.6 1171.07 1129.42 1170.17 1147.51 1169.55 z" fill="#2563eb" transform="translate(0,0)"></path>
<path d="M 760.479 1265.48 L 762.363 1266.11 C 766.13 1276.85 759.223 1309.25 753.613 1319.68 C 748.329 1310.22 747.656 1308.25 745.195 1298.08 C 735.404 1308.1 722.695 1323.74 713.182 1334.6 L 653.004 1403.17 C 607.524 1455.36 561.214 1506.66 516.122 1559.3 C 519.56 1563.9 522.488 1568.41 524.364 1573.88 C 528.11 1584.56 527.253 1596.31 521.998 1606.33 C 509.74 1629.29 483.077 1632.05 461.713 1620.25 C 457.03 1616.47 454.575 1614.15 451.199 1608.98 C 445.205 1599.98 443.271 1588.88 445.869 1578.39 C 451.93 1553.63 476.304 1542.09 500.147 1548.74 C 552.246 1488.15 604.891 1428.03 658.077 1368.4 L 706.148 1314.4 C 712.896 1306.78 727.043 1289.73 734.153 1284.01 C 728.504 1282.56 713.591 1280.78 710.479 1277.96 C 710.698 1276.18 711.061 1273.74 712.586 1272.64 C 721.586 1266.19 749.62 1266.16 760.479 1265.48 z" fill="#2563eb" transform="translate(0,0)"></path>

<path d="M 366.281 1124.86 C 407.277 1135.8 455.404 1147.36 496.659 1156.42 C 531.542 1100.37 600.696 1153.47 570.534 1197.21 C 564.021 1206.83 553.775 1213.28 542.285 1214.99 C 514.766 1218.88 496.732 1200.01 493.72 1174.01 C 452.987 1164.6 412.357 1154.75 371.838 1144.45 C 341.828 1174.27 310.801 1208.29 281.757 1239.33 L 180.727 1345.15 C 174.293 1352 138.826 1391.13 133.365 1394.77 L 133.271 1393.8 C 168.048 1349.11 213.652 1299.7 251.27 1256.43 C 287.684 1214.56 328.427 1164.41 366.281 1124.86 z" fill="#2563eb" transform="translate(0,0)"></path>

<path d="M 818.69 1295.44 C 823.077 1294.95 821.334 1294.36 824.478 1296.06 C 826.097 1304.85 831.11 1344.47 824.037 1348.69 C 818.997 1346.53 813.186 1331.91 810.516 1326.24 C 765.351 1375.68 721.606 1425.26 677.628 1475.72 C 650.599 1506.73 621.5 1535.52 595.478 1567.51 C 600.561 1580.6 607.789 1595.65 611.988 1608.79 C 574.11 1645.57 532.709 1688.35 495.448 1726.34 C 494.245 1727.54 493.939 1727.64 492.526 1728.6 C 494.685 1721.63 582.064 1618.08 592.094 1606.11 C 586.319 1591.01 581.138 1577.64 574.73 1562.73 C 582.236 1555.87 601.672 1532.75 609.52 1524.05 C 636.798 1494.11 663.771 1463.89 690.435 1433.4 L 759.739 1356.14 C 771.81 1342.81 786.035 1327.93 797.301 1314.15 C 790.566 1312.87 776.022 1311.33 772.17 1305.27 L 773.106 1303.42 C 783.185 1297.48 806.518 1296.54 818.69 1295.44 z" fill="#2563eb" transform="translate(0,0)"></path>
<path d="M 1020.14 1463.17 C 1027.2 1462.56 1033.64 1462.77 1040.41 1465.07 C 1050.67 1468.54 1059.09 1476.01 1063.75 1485.79 C 1068.62 1495.96 1068.76 1508.35 1064.58 1518.76 C 1060.52 1528.85 1052.61 1536.9 1042.6 1541.14 C 1029.26 1546.76 1017.85 1543.96 1005.22 1539.11 C 990.653 1556.45 971.945 1574.06 959.623 1592.54 C 957.968 1595.03 966.331 1606.88 952.619 1621.01 C 940.265 1629.04 924.655 1629.23 916.855 1615.1 C 913.533 1609.05 912.849 1601.89 914.964 1595.32 C 919.494 1580.93 931.745 1575.64 945.627 1580.31 C 959.124 1564.24 979.036 1542.16 993.859 1527.68 C 989.876 1522.87 988.435 1520.76 986.801 1514.64 C 983.826 1503.48 985.538 1491.6 991.541 1481.74 C 998.859 1469.74 1007.38 1465.99 1020.14 1463.17 z" fill="#2563eb" transform="translate(0,0)"></path>


<path d="M 597.696 1686.18 C 620.895 1681.49 643.496 1696.52 648.141 1719.73 C 652.785 1742.93 637.711 1765.51 614.494 1770.11 C 591.339 1774.69 568.842 1759.67 564.21 1736.52 C 559.578 1713.38 574.56 1690.85 597.696 1686.18 z" fill="#2563eb" transform="translate(0,0)"></path>

<path d="M 1126.87 1553.89 L 1127.63 1555.55 C 1100.29 1589.27 1072.19 1622.37 1043.35 1654.82 C 1017.53 1684.41 991.896 1714.45 964.664 1742.76 C 956.367 1751.38 948.157 1760.08 940.024 1768.86 C 886.167 1827.13 831.848 1884.97 777.07 1942.37 L 776.417 1941.49 C 815.104 1892.68 854.994 1844.84 896.05 1798 C 967.966 1714.73 1046.39 1628.89 1126.87 1553.89 z" fill="#2563eb" transform="translate(0,0)"></path>
<path d="M 459.614 1453.1 C 513.904 1449.07 508.344 1520.42 462.052 1516.69 C 452.472 1515.92 443.185 1506.55 437.754 1498.84 C 419.037 1515.43 404.321 1529.07 386.637 1546.82 C 382.76 1550.69 361.359 1572.46 358.446 1574.29 C 363.301 1566.54 374.894 1554.16 381.36 1546.51 C 398.383 1526.35 415.972 1506.62 434.645 1487.96 C 434.876 1469.33 442.026 1458.86 459.614 1453.1 z" fill="#2563eb" transform="translate(0,0)"></path>

<metadata><recraft-signature>{"signed_by": "recraft", "signature_b64": "IsbuWIFZYDDn0pLE/G4tBNiuFECghrRtDz1yaxknRQK81hkEH0/sKuV9cVAmyvM6XmvCdnt2M/udwslWIFTVCw==", "signing_algo": "Ed25519", "generation_timestamp": 1768310680, "identifier": "041031dc-320a-41c3-9223-38edb637ba4c"}</recraft-signature></metadata>

  </g>
</svg>
